<svg id="Capa_1" enable-background="new 0 0 511.981 511.981" height="512" viewBox="0 0 511.981 511.981" width="512" xmlns="http://www.w3.org/2000/svg"><g><path d="m367.58 89.293c-4.452 4.452-6.904 10.371-6.904 16.667s2.452 12.215 6.903 16.667l54.487 54.487c4.452 4.452 10.371 6.903 16.666 6.903 6.296 0 12.215-2.452 16.666-6.903 4.452-4.452 6.904-10.371 6.904-16.667s-2.452-12.215-6.903-16.667l-54.487-54.488c-9.189-9.189-24.144-9.187-33.332.001zm77.213 65.094c1.618 1.618 2.51 3.771 2.51 6.06s-.892 4.441-2.511 6.06c-1.618 1.619-3.771 2.51-6.06 2.51s-4.441-.891-6.06-2.51l-54.487-54.488c-1.618-1.618-2.51-3.771-2.51-6.06s.892-4.441 2.511-6.06c1.67-1.671 3.864-2.506 6.06-2.506 2.194 0 4.39.835 6.06 2.506z"/><path d="m510.158 227.367c-3.136-15.493-14.321-27.92-28.629-33.195 35.481-59.195 40.401-114.629 12.015-143.016-12.452-12.451-30.486-18.826-52.191-18.426-4.141.076-7.437 3.495-7.361 7.636.075 4.095 3.418 7.363 7.496 7.363.047 0 .094 0 .141-.001 17.757-.329 31.672 4.397 41.309 14.034 14.903 14.903 15.305 37.546 13.019 53.917-3.234 23.152-13.708 49.261-30.322 75.731-43.257-.825-86.7-1.395-130.214-1.707-.283-25.544-1.863-51.399-4.736-76.976-.393-3.492-3.157-6.244-6.651-6.62-2.237-.24-4.477-.454-6.715-.676 31.661-26.773 65.51-45.632 96.668-53.671 4.011-1.035 6.423-5.125 5.388-9.136-1.034-4.011-5.127-6.424-9.136-5.388-11.94 3.081-24.22 7.625-36.599 13.482 2.411-10.483 3.56-23.05-1.042-32.427-2.772-5.651-7.362-9.504-13.272-11.143-8.757-2.426-22.36-1.152-37.473 18.703-.731.961-1.438 1.929-2.118 2.892-.082-.285-.165-.569-.251-.854-2.97-9.882-10.734-26.461-29.384-26.461-6.477 0-12.124 2.582-16.334 7.466-5.495 6.377-7.899 16.282-8.762 26.154-6.563-8.632-14.514-15.57-23.114-15.57-5.587 0-10.682 2.846-14.345 8.014-9.65 13.614-9.79 43.118-.826 74.03-2.245.028-4.489.079-6.733.126-14.694-17.146-32.456-28.946-40.225-33.668v-16.44c3.521-.617 6.198-3.682 6.198-7.38v-21.175c0-11.412-9.284-20.696-20.696-20.696h-46.638c-11.412 0-20.696 9.284-20.696 20.696v21.175c0 3.698 2.679 6.763 6.2 7.38l-.006 16.437c-10.126 6.15-37.176 24.277-52.315 50.598-3.088 5.346-4.518 11.508-4.131 17.833.726 11.527 2.529 33.937 6.448 54.864-3.071.056-6.145.107-9.214.166-20.832.393-38.954 15.504-43.088 35.926-2.43 11.965-2.43 24.099-.001 36.058 3.034 15.01 13.667 27.398 27.711 32.867.824 15.267 2.235 36.979 4.545 61.655-6.191 17.535-12.255 35.076-18.137 52.581-5.061 15.079 1.715 31.814 15.771 38.932 5.348 2.699 10.971 4.794 16.726 6.25 5.379 15.253 14.979 28.412 27.987 38.247 14.364 10.86 31.48 16.6 49.498 16.6h260.137c18.018 0 35.134-5.74 49.498-16.6 13.009-9.836 22.609-22.996 27.988-38.251 5.782-1.469 11.404-3.566 16.728-6.257 14.059-7.105 20.837-23.842 15.767-38.931-5.887-17.516-11.949-35.056-18.135-52.578 2.309-24.675 3.72-46.386 4.544-61.652 14.06-5.482 24.68-17.863 27.709-32.856 2.429-11.967 2.429-24.101-.001-36.062zm-193.732-106.965c2.4 23.03 3.734 46.25 3.996 69.213-55.63-.323-111.351-.232-166.925.282.255-23.052 1.59-46.367 3.999-69.496 52.76-5.264 106.167-5.264 158.93.001zm-76.644-84.236c.546-.77 1.355-1.688 2.108-1.688 5.4 0 16.726 15.406 24.781 33.704 1.326 3.242 4.742 5.148 8.222 4.545 3.594-.624 6.218-3.742 6.218-7.39 0-.456-.043-.913-.127-1.363-3.749-25.343.418-40.964 4.146-45.289 1.364-1.583 2.851-2.258 4.971-2.258 17.29 0 17.869 34.402 17.87 34.74 0 3.545 2.483 6.603 5.951 7.335 3.474.733 6.978-1.066 8.411-4.309 5.362-12.129 20.465-36.057 32.983-32.589 1.782.494 2.923 1.48 3.813 3.296 3.191 6.502 1.483 20.883-4.104 35.577-19.835 11.403-39.618 25.989-58.378 43.176-18.05-1.323-36.153-2.045-54.261-2.165-10.45-32.762-8.002-57.706-2.604-65.322zm-75.021 28.617h-45.636l.005-13.123h45.632v13.123zm-46.136-47.495h46.638c3.141 0 5.696 2.555 5.696 5.696v13.673h-58.03v-13.672c0-3.141 2.555-5.697 5.696-5.697zm-49.712 171.46c-3.803-20.195-5.558-42.052-6.265-53.269-.205-3.362.538-6.613 2.156-9.414 14.305-24.872 41.953-42.233 48.823-46.283h56.63c4.383 2.58 17.247 10.589 29.7 22.525-16.73.758-33.432 2.014-50.066 3.801-3.495.375-6.26 3.127-6.652 6.62-2.885 25.696-4.466 51.667-4.739 77.321-23.028.245-46.029.555-68.981.944-.246-.732-.46-1.478-.606-2.245zm-24.188 110.597c.063.002.125.008.188.009l.24.004c3.363.063 6.726.118 10.09.178-3.006 8.08-5.991 16.169-8.941 24.27-.661-9.137-1.177-17.38-1.577-24.461zm341.334 196.208h-260.137c-26.485 0-50.468-15.897-61.228-39.613 9.853-2.457 18.397-9.549 22.319-19.551 4.322-11.017 8.249-21.167 12.006-31.028 1.475-3.871-.467-8.204-4.338-9.679-3.871-1.474-8.204.467-9.679 4.338-3.74 9.816-7.65 19.92-11.954 30.893-3.108 7.927-11.58 12.468-19.726 10.554-5.118-1.193-10.115-3.01-14.843-5.397-7.451-3.773-11.027-12.704-8.319-20.77 19.229-57.222 40.204-114.849 62.341-171.278 3.113-7.929 11.591-12.473 19.715-10.57 5.168 1.213 10.166 3.033 14.863 5.413 7.453 3.764 11.026 12.691 8.312 20.766-12.584 37.444-25.98 75.254-39.818 112.38-1.447 3.881.527 8.2 4.408 9.647 3.882 1.448 8.2-.527 9.647-4.408 9.43-25.301 18.648-50.918 27.554-76.522 39.436.428 79.118.649 118.808.649 39.693 0 79.38-.22 118.819-.649 15.833 45.521 32.637 91.004 50.158 135.654 3.923 10.002 12.468 17.094 22.322 19.552-10.758 23.719-34.744 39.619-61.23 39.619zm87.448-59.495c-4.716 2.383-9.715 4.203-14.859 5.408-8.127 1.905-16.605-2.636-19.717-10.564-22.092-56.3-43.066-113.927-62.341-171.28-2.713-8.072.861-17 8.314-20.766 4.714-2.383 9.714-4.203 14.858-5.408 1.247-.292 2.502-.433 3.744-.433 6.859 0 13.339 4.285 15.973 10.997 22.092 56.3 43.066 113.927 62.341 171.281 2.713 8.072-.861 16.999-8.313 20.765zm-16.763-136.522c3.358-.06 6.717-.115 10.075-.178l.268-.005c.057-.001.114-.007.171-.008-.401 7.078-.917 15.318-1.577 24.451-2.95-8.1-5.934-16.185-8.937-24.26zm38.712-39.086c-2.268 11.222-10.916 20.257-22.078 23.027-2.104.536-4.328.832-6.59.879l-.249.005c-5.126.096-10.251.185-15.377.272-5.82-15.441-11.725-30.822-17.72-46.1-5.813-14.819-21.769-23.283-37.102-19.689-6.303 1.477-12.428 3.706-18.203 6.626-14.059 7.105-20.837 23.842-15.767 38.931 2.394 7.123 4.814 14.25 7.259 21.378-75.472.784-151.813.784-227.285 0 2.446-7.13 4.874-14.257 7.263-21.368 5.075-15.094-1.704-31.832-15.759-38.931-5.752-2.914-11.877-5.145-18.209-6.632-15.333-3.591-31.284 4.875-37.103 19.694-5.997 15.285-11.9 30.663-17.715 46.092-5.13-.087-10.261-.177-15.391-.272l-.221-.004c-2.281-.048-4.503-.344-6.651-.891-11.118-2.759-19.768-11.794-22.037-23.023-2.027-9.985-2.027-20.11.001-30.099 2.752-13.592 14.81-23.647 28.673-23.909 139.873-2.685 281.715-2.685 421.59 0 13.861.262 25.919 10.317 28.672 23.914 2.029 9.983 2.029 20.108-.001 30.1z"/><path d="m156.855 327.051h-.506c-17.176.041-31.037 13.598-31.555 30.864-.609 20.335-.609 40.957 0 61.292.518 17.265 14.378 30.822 31.561 30.864h.5c17.176-.042 31.037-13.598 31.555-30.864.609-20.335.609-40.957 0-61.292-.519-17.267-14.379-30.823-31.555-30.864zm16.561 91.706c-.269 8.974-7.715 16.292-16.591 16.313h-.44c-8.883-.021-16.329-7.34-16.598-16.313-.601-20.037-.601-40.356 0-60.393.269-8.974 7.715-16.292 16.603-16.313h.423.005c8.883.021 16.329 7.339 16.598 16.313.601 20.037.601 40.356 0 60.393z"/><path d="m256.243 327.051h-.506c-17.176.041-31.037 13.598-31.555 30.864-.609 20.335-.609 40.957 0 61.292.518 17.265 14.378 30.822 31.561 30.864h.5c17.177-.042 31.037-13.599 31.555-30.864.609-20.335.609-40.957 0-61.292-.518-17.266-14.378-30.823-31.555-30.864zm16.561 91.706c-.269 8.974-7.714 16.292-16.59 16.313h-.44c-8.883-.021-16.329-7.34-16.598-16.313-.601-20.037-.601-40.356 0-60.393.269-8.974 7.715-16.292 16.603-16.313h.423.005c8.883.021 16.328 7.339 16.597 16.313.601 20.037.601 40.356 0 60.393z"/><path d="m355.631 327.051h-.505c-17.177.041-31.037 13.598-31.555 30.864-.609 20.335-.609 40.957 0 61.292.518 17.265 14.378 30.823 31.561 30.864h.5c17.177-.042 31.037-13.599 31.555-30.864.609-20.335.609-40.957 0-61.292-.518-17.266-14.378-30.823-31.556-30.864zm16.562 91.706c-.269 8.974-7.714 16.292-16.591 16.313h-.439c-8.883-.021-16.328-7.34-16.597-16.313-.602-20.037-.602-40.356 0-60.393.269-8.974 7.714-16.292 16.602-16.313h.423.006c8.883.021 16.328 7.339 16.597 16.313.6 20.037.6 40.356-.001 60.393z"/></g></svg>