<svg id="Capa_1" enable-background="new 0 0 512 512" height="512" viewBox="0 0 512 512" width="512" xmlns="http://www.w3.org/2000/svg" xmlns:xlink="http://www.w3.org/1999/xlink"><linearGradient id="SVGID_1_" gradientUnits="userSpaceOnUse" x1="220.073" x2="264.073" y1="30.426" y2="296.426"><stop offset="0" stop-color="#c6d1ff"/><stop offset=".5834" stop-color="#e6d5f4"/><stop offset=".997" stop-color="#ffd9ec"/></linearGradient><g><g><path d="m501.873 132.831c-22.357-56.888-91.226-91.003-149.556-68.427-66.582 25.769-44.506 131.673-104.983 153.088-32.669 11.568-80.963-31.644-113.969-38.27-60.821-12.21-115.881 30.705-129.439 90.134-13.832 60.63 8.353 141.61 74.967 158.066 79.35 19.602 120.683-51.729 187.249-72.211 68.31-21.019 144.263 28.622 200.814-31.776 41.78-44.621 57.055-134.272 34.917-190.604z" fill="url(#SVGID_1_)"/></g><g><g><path d="m466.997 357.273h-14.486c2.544-1.813 4.208-4.78 4.208-8.142v-136.829c0-5.523-4.477-10-10-10h-78.414c5.523 0 10-4.477 10-10v-71.828c0-5.523-4.477-10-10-10h-136.828c-5.523 0-10 4.477-10 10v71.828c0 5.523 4.477 10 10 10h-78.414c-5.523 0-10 4.477-10 10v136.828c0 3.362 1.664 6.329 4.208 8.142h-29.508c-.787-8.669-5.968-16.066-13.3-19.948v-222.129c0-4.528-2.449-8.703-6.402-10.912l-44.458-24.842c-6.026-3.366-13.642-1.212-17.01 4.814-3.367 6.026-1.212 13.642 4.814 17.01l38.054 21.264v215.649c-7.154 4.438-11.921 12.359-11.921 21.397 0 11.16 7.267 20.618 17.326 23.913v21.144c0 11.04 8.95 20 20 20h18.04c.727 19.826 17.02 35.678 37.023 35.678s36.296-15.852 37.023-35.678h167.95c.727 19.826 17.02 35.678 37.023 35.678s36.296-15.852 37.023-35.678h18.046c11.04 0 20-8.96 20-20v-37.36c.003-5.529-4.477-9.999-9.997-9.999z" fill="#2626bc" opacity=".1"/><g><g><g><path d="m91.962 344.771c-6.904 0-12.5-5.596-12.5-12.5v-234.742l-38.054-21.264c-6.026-3.368-8.182-10.983-4.814-17.01 3.368-6.026 10.984-8.181 17.01-4.814l44.456 24.842c3.953 2.209 6.402 6.384 6.402 10.912v242.076c0 6.903-5.597 12.5-12.5 12.5z" fill="#ff7eb8"/></g><g><path d="m79.462 178.778v153.493c0 6.904 5.596 12.5 12.5 12.5 6.903 0 12.5-5.596 12.5-12.5v-153.493z" fill="#ffc4df"/></g><g><path d="m79.462 208.496v123.775c0 6.904 5.596 12.5 12.5 12.5 6.903 0 12.5-5.596 12.5-12.5v-123.775z" fill="#ff5ba8"/></g></g><g><g><g><g><g><g><path d="m289.891 332.27h-136.829c-5.523 0-10-4.477-10-10v-136.828c0-5.523 4.477-10 10-10h136.828c5.523 0 10 4.477 10 10v136.828c.001 5.523-4.476 10-9.999 10z" fill="#02ffb3"/><path d="m236.215 209.802h-29.476c-2.761 0-5-2.239-5-5v-29.36h39.476v29.36c0 2.762-2.239 5-5 5z" fill="#dcfdee"/></g></g><g><g><path d="m213.135 284.817h58.583c2.761 0 5-2.239 5-5s-2.239-5-5-5h-58.583c-2.761 0-5 2.239-5 5s2.239 5 5 5z" fill="#00d890"/></g></g><g><g><path d="m213.135 267.622h58.583c2.761 0 5-2.239 5-5s-2.239-5-5-5h-58.583c-2.761 0-5 2.239-5 5s2.239 5 5 5z" fill="#00d890"/></g></g></g></g><g><g><g><g><path d="m446.719 332.27h-136.828c-5.523 0-10-4.477-10-10v-136.828c0-5.523 4.477-10 10-10h136.828c5.523 0 10 4.477 10 10v136.828c0 5.523-4.477 10-10 10z" fill="#ff7eb8"/><path d="m393.043 209.802h-29.476c-2.761 0-5-2.239-5-5v-29.36h39.476v29.36c0 2.762-2.238 5-5 5z" fill="#dcfdee"/></g></g><g><g><path d="m364.013 232.508h58.583c2.761 0 5-2.239 5-5s-2.239-5-5-5h-58.583c-2.761 0-5 2.239-5 5s2.239 5 5 5z" fill="#ffdbed"/></g><g><path d="m394.013 252.83h28.583c2.761 0 5-2.239 5-5s-2.239-5-5-5h-28.583c-2.761 0-5 2.239-5 5s2.239 5 5 5z" fill="#ffdbed"/></g><g><path d="m394.013 270.151h28.583c2.761 0 5-2.239 5-5s-2.239-5-5-5h-28.583c-2.761 0-5 2.239-5 5s2.239 5 5 5z" fill="#ffdbed"/></g></g></g></g><g><g><g><g><path d="m368.305 175.442h-136.828c-5.523 0-10-4.477-10-10v-71.828c0-5.523 4.477-10 10-10h136.828c5.523 0 10 4.477 10 10v71.828c0 5.523-4.477 10-10 10z" fill="#8399fe"/><path d="m280.152 83.614h39.476v91.828h-39.476z" fill="#d2deff"/></g></g></g></g><path d="m271.718 313.114h-32.134c-2.761 0-5-2.239-5-5v-7.154c0-2.761 2.239-5 5-5h32.134c2.761 0 5 2.239 5 5v7.154c0 2.761-2.239 5-5 5z" fill="#ff7eb8"/></g><g><path d="m476.997 342.273v37.36c0 11.04-8.96 20-20 20h-352.13c-11.05 0-20-8.96-20-20v-37.36c0-5.53 4.47-10 10-10h372.13c5.52 0 10 4.47 10 10z" fill="#b7c5ff"/><path d="m117.867 351.973c0 13.9-11.26 25.16-25.16 25.16-2.74 0-5.37-.44-7.84-1.25v-33.61c0-5.53 4.47-10 10-10h13.49c5.8 4.6 9.51 11.72 9.51 19.7z" fill="#9fb0fe"/><g><path d="m231.066 399.63h-42.512v-24.915h18.477c6.19 0 11.899 3.339 14.934 8.734z" fill="#8399fe"/></g><g><path d="m330.582 399.63h42.512v-24.915h-18.477c-6.19 0-11.899 3.339-14.934 8.734z" fill="#8399fe"/></g><path d="m476.997 342.273v15.71h-392.13v-15.71c0-5.53 4.47-10 10-10h372.13c5.52 0 10 4.47 10 10z" fill="#d2deff"/><path d="m117.867 351.973c0 2.07-.25 4.09-.73 6.01h-32.27v-15.71c0-5.53 4.47-10 10-10h13.49c5.8 4.6 9.51 11.72 9.51 19.7z" fill="#b7c5ff"/><g><g><circle cx="159.93" cy="398.252" fill="#6583fe" r="37.058"/><circle cx="159.93" cy="398.252" fill="#d2deff" r="16.782"/></g><g><circle cx="401.927" cy="398.252" fill="#6583fe" r="37.058"/><circle cx="401.927" cy="398.252" fill="#d2deff" r="16.782"/></g></g></g></g><circle cx="92.706" cy="334.575" fill="#8399fe" r="25.165"/><circle cx="92.706" cy="334.575" fill="#6583fe" r="10.727"/><path d="m466.996 327.271h-6.152c.556-1.567.875-3.245.875-5v-136.829c0-8.271-6.729-15-15-15h-64.29c.556-1.567.875-3.245.875-5v-71.828c0-8.271-6.729-15-15-15h-136.827c-8.271 0-15 6.729-15 15v71.828c0 1.755.319 3.433.875 5h-64.289c-8.271 0-15 6.729-15 15v136.829c0 1.755.319 3.433.875 5h-16.965c-1.837-7.358-6.38-13.655-12.511-17.765v-219.311c0-6.333-3.435-12.187-8.963-15.277l-44.457-24.843c-8.424-4.706-19.106-1.682-23.813 6.741-4.707 8.424-1.683 19.106 6.74 23.813l35.493 19.833v183.982c0 2.761 2.239 5 5 5s5-2.239 5-5v-186.915c0-1.812-.979-3.481-2.561-4.365l-38.054-21.264c-3.61-2.018-4.906-6.596-2.889-10.206s6.596-4.907 10.206-2.889l44.456 24.843c2.37 1.324 3.842 3.833 3.842 6.547v214.987c-2.173-.499-4.432-.772-6.755-.772-16.633 0-30.166 13.532-30.166 30.165 0 12.041 7.094 22.453 17.321 27.287v17.768c0 13.785 11.215 25 25 25h13.493c3.082 20.176 20.552 35.681 41.576 35.681 23.191 0 42.058-18.867 42.058-42.059s-18.867-42.059-42.058-42.059c-21.97 0-40.048 16.936-41.892 38.437h-13.176c-8.271 0-15-6.729-15-15v-15.028c.937.088 1.885.138 2.845.138 15.724 0 28.669-12.095 30.038-27.47h344.251c2.757 0 5 2.243 5 5v37.359c0 8.271-6.729 15-15 15h-13.177c-1.844-21.501-19.922-38.437-41.892-38.437s-40.048 16.936-41.892 38.437h-133.795c-2.761 0-5 2.239-5 5s2.239 5 5 5h134.112c3.082 20.176 20.552 35.681 41.575 35.681 21.024 0 38.493-15.505 41.576-35.681h13.493c13.785 0 25-11.215 25-25v-37.359c-.001-8.27-6.73-14.999-15.001-14.999zm-307.066 38.922c17.677 0 32.058 14.381 32.058 32.059s-14.381 32.059-32.058 32.059-32.059-14.381-32.059-32.059 14.382-32.059 32.059-32.059zm-67.223-11.453c-11.119 0-20.166-9.046-20.166-20.166s9.046-20.165 20.166-20.165 20.165 9.046 20.165 20.165-9.046 20.166-20.165 20.166zm133.77-189.298v-71.828c0-2.757 2.243-5 5-5h136.828c2.757 0 5 2.243 5 5v71.828c0 2.757-2.243 5-5 5h-58.414-20-58.414c-2.757 0-5-2.243-5-5zm-73.415 161.829c-2.757 0-5-2.243-5-5v-136.829c0-2.757 2.243-5 5-5h136.828c2.757 0 5 2.243 5 5v136.829c0 2.757-2.243 5-5 5zm156.829 0c-2.757 0-5-2.243-5-5v-136.829c0-2.757 2.243-5 5-5h136.829c2.757 0 5 2.243 5 5v136.829c0 2.757-2.243 5-5 5zm92.036 103.04c-17.677 0-32.058-14.381-32.058-32.059s14.381-32.059 32.058-32.059 32.059 14.381 32.059 32.059-14.382 32.059-32.059 32.059z" fill="#2626bc"/></g></g><path d="m165.683 139.278c-1.28 0-2.559-.488-3.536-1.464l-5.964-5.964-5.964 5.964c-1.953 1.952-5.118 1.952-7.071 0-1.953-1.953-1.953-5.119 0-7.071l9.5-9.5c1.953-1.952 5.118-1.952 7.071 0l9.5 9.5c1.953 1.953 1.953 5.119 0 7.071-.977.976-2.257 1.464-3.536 1.464z" fill="#00eca2"/><path d="m186.212 101.544c-1.28 0-2.559-.488-3.536-1.464l-5.964-5.964-5.964 5.964c-1.953 1.952-5.118 1.952-7.071 0-1.953-1.953-1.953-5.119 0-7.071l9.5-9.5c1.953-1.952 5.118-1.952 7.071 0l9.5 9.5c1.953 1.953 1.953 5.119 0 7.071-.977.975-2.256 1.464-3.536 1.464z" fill="#6583fe"/><path d="m344.522 464.144c-3.713 0-7.427-1.414-10.253-4.24-5.653-5.654-5.653-14.853 0-20.506 5.653-5.652 14.853-5.653 20.506 0 5.653 5.654 5.653 14.853 0 20.506-2.827 2.827-6.54 4.24-10.253 4.24zm-.001-18.991c-1.152 0-2.305.438-3.182 1.316-1.755 1.754-1.755 4.609 0 6.364 1.754 1.755 4.61 1.754 6.364 0 1.755-1.754 1.755-4.609 0-6.364-.876-.878-2.029-1.316-3.182-1.316z" fill="#00eca2"/><g fill="#ff7eb8"><path d="m429.367 139.278c-3.873 0-7.514-1.508-10.253-4.248-2.738-2.738-4.247-6.379-4.247-10.252s1.508-7.514 4.247-10.253c5.653-5.654 14.853-5.653 20.506 0 2.739 2.739 4.247 6.38 4.247 10.253 0 3.874-1.508 7.515-4.247 10.253-2.739 2.739-6.38 4.247-10.253 4.247zm0-18.998c-1.152 0-2.305.438-3.182 1.316-.85.85-1.318 1.98-1.318 3.182s.468 2.332 1.318 3.182c.851.851 1.98 1.318 3.182 1.318s2.332-.468 3.182-1.318 1.318-1.979 1.318-3.182c0-1.202-.468-2.332-1.318-3.182-.877-.877-2.03-1.316-3.182-1.316z"/><path d="m48.221 423.626c-3.713 0-7.426-1.414-10.253-4.24-5.653-5.654-5.653-14.853 0-20.506s14.853-5.653 20.506 0c5.653 5.654 5.653 14.853 0 20.506-2.826 2.826-6.539 4.24-10.253 4.24zm.001-18.991c-1.153 0-2.305.438-3.182 1.316-1.755 1.754-1.755 4.609 0 6.364 1.753 1.754 4.609 1.755 6.364 0 1.755-1.754 1.755-4.609 0-6.364-.878-.878-2.03-1.316-3.182-1.316z"/></g></g></g></svg>