<?xml version="1.0" encoding="iso-8859-1"?>
<!-- Generator: Adobe Illustrator 19.0.0, SVG Export Plug-In . SVG Version: 6.00 Build 0)  -->
<svg version="1.1" id="Capa_1" xmlns="http://www.w3.org/2000/svg" xmlns:xlink="http://www.w3.org/1999/xlink" x="0px" y="0px"
	 viewBox="0 0 512 512" style="enable-background:new 0 0 512 512;" xml:space="preserve">
<g>
	<path style="fill:#FF5A5A;" d="M394.72,234.408L293.39,57.945c-3.624-6.508-8.979-12.151-15.864-16.161
		C257.1,29.891,230.94,36.897,219.11,57.435L117.485,234.408l0.076,0.041l-0.076,0.127L17.921,407.96
		C12.933,415,10,423.618,10,432.924c0,23.796,19.186,43.084,42.855,43.084h203.247H459.35v-0.184
		c7.223,0.01,14.545-1.83,21.258-5.707c20.427-11.801,27.473-38.027,15.735-58.565L395.976,236.766
		C395.585,235.967,395.165,235.186,394.72,234.408L394.72,234.408z M276.012,366.005c0,11.046-8.954,20.001-20.001,20.001
		c-11.045,0-19.999-8.955-19.999-20.001c0-11.047,8.953-19.999,19.999-19.999C267.057,346.007,276.012,354.958,276.012,366.005
		L276.012,366.005z M256.011,306.007L256.011,306.007L256.011,306.007z M256.013,186L256.013,186L256.013,186z M276.012,206.001
		v80.005c0,10.998-8.997,20.001-20.001,20.001c-11,0-19.999-9.002-19.999-20.001v-80.005c0-11.004,8.998-20.001,20.001-20.001
		C267.014,186,276.012,194.996,276.012,206.001z"/>
	<g>
		<path style="fill:#FF8C5A;" d="M276.012,286.006v-80.005c0-11.004-8.997-20.001-19.999-20.001
			c-11.002,0-20.001,8.996-20.001,20.001v80.005c0,10.998,8.998,20.001,19.999,20.001
			C267.014,306.007,276.012,297.004,276.012,286.006z"/>
		<circle style="fill:#FF8C5A;" cx="256.011" cy="366.005" r="20"/>
	</g>
</g>
<path d="M256.013,316.007c16.542,0,29.999-13.46,29.999-30.001v-80.005c0-16.544-13.459-30.001-30.001-30.001
	c-16.542,0-29.999,13.458-29.999,30.001v80.005C226.012,302.548,239.47,316.007,256.013,316.007z M246.013,206.001
	c0-5.514,4.486-10,10-10c5.513,0,9.998,4.486,9.998,10v80.005c0,5.514-4.485,10-9.998,10h-0.002c-5.514,0-9.998-4.486-9.998-10
	V206.001z"/>
<path d="M256.013,336.002c-16.543,0-30.001,13.46-30.001,30.003c0,16.544,13.459,30.001,30.001,30.001s30.001-13.458,30.001-30.001
	C286.014,349.462,272.556,336.002,256.013,336.002z M256.013,376.006c-5.514,0-10-4.486-10-10c0-5.516,4.486-10.002,10-10.002
	s10,4.486,10,10.002C266.013,371.52,261.527,376.006,256.013,376.006z"/>
<path d="M505.016,406.574L404.798,232.047c-0.434-0.865-0.904-1.742-1.406-2.617L302.091,53.018
	c-4.603-8.24-11.355-15.112-19.534-19.876c-8.033-4.678-17.167-7.15-26.411-7.15c-18.792,0-36.304,10.135-45.708,26.464
	L108.814,229.43c-0.211,0.367-0.397,0.748-0.557,1.137L9.474,402.587C3.273,411.511,0,421.989,0,432.924
	c0,29.271,23.711,53.084,52.855,53.084h406.495c0.728,0,1.437-0.076,2.119-0.225c8.452-0.338,16.758-2.744,24.141-7.008
	C510.76,464.247,519.471,431.864,505.016,406.574z M475.606,461.457c-4.947,2.857-10.549,4.367-16.243,4.367
	c-0.004,0-0.008,0-0.013,0c-0.646,0-1.283,0.063-1.907,0.184H52.855c-18.116,0-32.854-14.841-32.854-33.083
	c0-6.938,2.102-13.571,6.079-19.183c0.184-0.258,0.354-0.527,0.513-0.803l99.523-173.31l0.032-0.053
	c0.249-0.418,0.465-0.852,0.648-1.299L227.776,62.426c5.839-10.137,16.71-16.435,28.37-16.435c5.713,0,11.365,1.533,16.346,4.432
	c5.097,2.969,9.302,7.252,12.161,12.388c0.021,0.039,0.043,0.076,0.065,0.115l101.324,176.453c0.348,0.607,0.671,1.213,0.961,1.801
	c0.094,0.191,0.193,0.381,0.301,0.564l100.357,174.772C496.659,432.258,491.25,452.419,475.606,461.457z"/>
<path d="M112.857,426.008h-0.235c-5.523,0-10,4.477-10,10c0,5.522,4.477,10,10,10h0.235c5.523,0,10-4.478,10-10
	C122.857,430.485,118.38,426.008,112.857,426.008z"/>
<path d="M83.891,426.008H52.855c-5.523,0-10,4.477-10,10c0,5.522,4.477,10,10,10H83.89c5.523,0,10-4.478,10-10
	C93.891,430.485,89.414,426.008,83.891,426.008z"/>
<path d="M399.402,426.008h-0.236c-5.523,0-10,4.477-10,10c0,5.522,4.477,10,10,10h0.236c5.522,0,10-4.478,10-10
	C409.403,430.485,404.924,426.008,399.402,426.008z"/>
<path d="M459.17,426.008h-31.038c-5.523,0-10,4.477-10,10c0,5.522,4.477,10,10,10h31.038c5.523,0,10-4.478,10-10
	C469.17,430.485,464.693,426.008,459.17,426.008z"/>
<g>
</g>
<g>
</g>
<g>
</g>
<g>
</g>
<g>
</g>
<g>
</g>
<g>
</g>
<g>
</g>
<g>
</g>
<g>
</g>
<g>
</g>
<g>
</g>
<g>
</g>
<g>
</g>
<g>
</g>
</svg>
